<?xml version="1.0" standalone="no"?>
<!DOCTYPE svg PUBLIC "-//W3C//DTD SVG 20010904//EN"
 "http://www.w3.org/TR/2001/REC-SVG-20010904/DTD/svg10.dtd">
<svg version="1.0" xmlns="http://www.w3.org/2000/svg"
 width="1024.000000pt" height="1024.000000pt" viewBox="0 0 1024.000000 1024.000000"
 preserveAspectRatio="xMidYMid meet">

<g transform="translate(0.000000,1024.000000) scale(0.100000,-0.100000)"
fill="#000000" stroke="none">
<path d="M5000 8843 c-452 -19 -614 -33 -922 -79 -383 -57 -740 -143 -1108
-269 -392 -135 -724 -327 -945 -549 -118 -118 -185 -206 -228 -298 -30 -65
-67 -197 -67 -240 0 -16 -6 -39 -14 -51 -22 -34 -83 -252 -97 -347 -16 -114
-6 -263 25 -370 47 -162 96 -249 234 -414 84 -102 80 -78 42 -276 -70 -357
-137 -771 -171 -1045 -60 -496 -63 -671 -19 -1010 35 -268 77 -453 151 -650
28 -77 52 -149 51 -160 0 -11 -12 -58 -26 -105 -38 -121 -42 -204 -18 -323 60
-287 251 -496 643 -701 504 -264 1274 -454 2094 -517 217 -17 945 -17 1150 0
952 77 1861 321 2314 621 107 71 237 192 298 277 51 71 113 207 134 293 28
118 9 316 -42 423 -16 34 -16 42 -4 60 16 26 76 206 110 332 36 132 91 459
106 624 14 166 8 408 -16 641 -18 169 -85 636 -115 795 -10 55 -28 156 -40
225 -11 69 -32 180 -45 247 -14 67 -25 128 -25 134 0 6 46 59 103 118 180 185
265 341 297 544 26 159 -6 399 -74 554 -13 32 -27 80 -31 106 -14 102 -84 269
-148 351 -272 351 -718 601 -1447 810 -600 172 -1508 277 -2150 249z m638
-248 c785 -54 1435 -187 1937 -397 156 -65 213 -94 375 -191 209 -124 301
-201 406 -341 90 -119 124 -234 106 -364 -14 -97 -47 -162 -129 -257 -201
-230 -488 -406 -960 -586 -398 -152 -1064 -289 -1638 -335 -813 -66 -1793 39
-2477 266 -641 213 -1062 499 -1216 827 -24 52 -27 70 -27 164 l0 106 49 99
c43 86 63 112 150 200 328 328 992 597 1796 728 276 45 506 67 920 89 166 9
514 5 708 -8z m2961 -1708 c0 -88 -13 -146 -50 -218 -119 -235 -410 -473 -813
-664 -145 -69 -429 -178 -600 -231 -478 -147 -1225 -257 -1836 -271 -364 -8
-891 30 -1268 93 -173 29 -508 102 -617 135 -38 11 -99 29 -135 39 -36 9 -92
27 -125 39 -33 13 -87 31 -120 41 -170 51 -470 188 -616 280 -386 245 -581
517 -552 770 l8 65 72 -86 c161 -193 372 -348 693 -509 330 -165 781 -299
1347 -400 267 -48 610 -83 980 -100 644 -30 1539 76 2153 255 416 121 803 284
1025 431 175 115 404 320 438 392 5 12 11 22 13 22 1 0 3 -37 3 -83z m-6084
-1080 c61 -31 157 -74 215 -97 58 -23 129 -53 158 -67 47 -22 52 -28 52 -56 0
-47 51 -147 95 -185 l37 -33 -66 -225 c-123 -413 -283 -903 -289 -884 -24 75
-90 290 -107 350 -12 41 -37 125 -55 185 -37 121 -158 541 -260 902 -36 128
-65 244 -65 257 0 24 3 23 88 -34 48 -32 137 -83 197 -113z m5540 -39 c-23
-84 -69 -241 -103 -348 -33 -107 -70 -229 -82 -270 -13 -41 -35 -113 -50 -160
-15 -47 -51 -168 -80 -270 -28 -102 -66 -230 -84 -284 l-32 -100 -38 135 c-21
74 -64 222 -96 329 -65 217 -145 506 -155 561 -5 27 -3 38 8 42 27 10 70 96
76 153 l6 55 75 33 c41 18 120 51 175 72 74 28 414 192 421 203 0 0 -18 -68
-41 -151z m255 -318 c30 -167 90 -591 116 -820 16 -145 19 -397 4 -435 -17
-44 -124 -167 -211 -241 -44 -38 -141 -108 -215 -156 -133 -87 -134 -87 -134
-59 0 35 -52 90 -93 98 -47 10 -63 -60 147 643 54 179 123 408 153 510 31 102
74 248 95 325 74 262 103 351 106 325 1 -14 16 -99 32 -190z m-6140 -205 c178
-643 267 -944 360 -1223 l59 -174 -46 -43 c-30 -29 -43 -49 -40 -59 8 -22 3
-20 -51 11 -227 131 -422 304 -486 430 -37 74 -13 342 105 1157 27 184 18 193
99 -99z m1415 214 c66 -16 228 -47 360 -70 376 -64 342 -55 349 -94 4 -19 22
-63 40 -99 l33 -66 -95 -287 c-115 -350 -217 -649 -288 -843 -29 -80 -58 -165
-65 -190 l-12 -45 -23 60 c-28 74 -135 402 -204 630 -28 94 -67 217 -85 275
-18 58 -61 193 -95 302 -33 108 -72 225 -85 259 l-25 63 17 73 c16 66 20 73
38 67 11 -3 74 -19 140 -35z m3369 -36 c10 -38 18 -75 18 -83 0 -8 -98 -303
-217 -655 -278 -822 -285 -843 -285 -874 -1 -35 -78 205 -235 724 -19 61 -68
222 -110 359 -71 230 -75 249 -60 266 22 24 55 114 55 148 l0 28 203 33 c213
34 392 69 517 101 41 10 80 19 86 19 5 1 18 -29 28 -66z m-1308 -168 c4 -16
17 -57 31 -91 l24 -61 -50 -144 c-184 -537 -309 -903 -371 -1089 -40 -118 -75
-222 -78 -230 -3 -10 -8 -4 -13 15 -4 17 -48 149 -97 295 -89 262 -152 453
-292 890 -40 124 -77 230 -82 236 -6 8 0 25 16 49 27 40 46 94 46 135 l0 25
430 0 430 0 6 -30z m1547 -365 c25 -80 67 -219 95 -310 28 -91 84 -275 126
-410 42 -135 82 -273 90 -308 l14 -62 -29 -16 c-58 -30 -91 -123 -71 -198 10
-36 10 -37 -26 -55 -83 -42 -180 -76 -424 -147 -142 -40 -260 -74 -263 -74 -2
0 -2 20 1 43 8 59 -23 133 -61 143 -19 5 -24 11 -19 23 3 9 12 40 19 69 15 60
285 875 350 1057 55 154 135 402 136 423 1 20 1 18 62 -178z m-3943 138 c0 -9
20 -81 44 -160 25 -79 63 -204 85 -278 22 -74 70 -229 106 -345 37 -115 97
-311 135 -435 37 -124 75 -247 84 -274 l15 -48 -29 -24 c-16 -14 -36 -46 -46
-72 -10 -26 -18 -48 -19 -50 -6 -8 -480 139 -641 199 l-52 20 5 52 c4 42 1 62
-15 94 -20 38 -74 93 -92 93 -4 0 19 78 51 173 92 269 349 1069 349 1086 0 14
2 14 10 1 5 -8 10 -23 10 -32z m2691 -383 c28 -93 68 -224 89 -290 21 -66 73
-232 115 -370 42 -137 99 -319 126 -402 48 -145 50 -154 33 -170 -26 -27 -64
-114 -64 -150 0 -25 -4 -33 -17 -33 -10 0 -97 -9 -193 -21 -231 -27 -488 -49
-575 -49 l-70 0 3 62 c3 54 0 68 -23 102 -18 26 -23 42 -16 50 21 25 278 754
458 1298 61 184 69 203 76 175 4 -18 30 -108 58 -202z m-1361 70 c38 -125 140
-444 318 -995 61 -188 116 -336 133 -356 7 -8 0 -15 -20 -22 -46 -16 -72 -66
-69 -131 l3 -54 -110 7 c-203 12 -584 56 -706 82 -22 4 -27 12 -32 46 -3 23
-18 56 -35 77 l-30 38 99 284 c148 424 386 1120 394 1154 4 17 9 26 10 20 2
-5 22 -73 45 -150z m-2474 -983 c65 -50 258 -169 342 -211 301 -151 963 -362
1412 -450 457 -89 868 -131 1296 -131 919 0 1755 152 2549 462 229 90 422 196
634 349 l44 32 -6 -85 c-13 -163 -87 -385 -172 -515 -62 -93 -197 -221 -325
-304 -177 -116 -257 -156 -520 -261 -317 -126 -949 -253 -1545 -310 -173 -16
-974 -16 -1155 0 -184 17 -482 51 -555 63 -286 48 -637 126 -775 172 -25 9
-79 25 -120 37 -190 56 -506 202 -662 307 -117 79 -238 184 -303 263 -122 149
-206 366 -250 645 l-7 40 39 -36 c21 -19 57 -50 79 -67z m599 -1412 c444 -216
1022 -360 1760 -439 518 -56 978 -54 1540 4 682 70 1260 212 1665 407 57 28
106 46 108 42 1 -5 15 -40 30 -79 l28 -70 -63 -37 c-147 -89 -591 -242 -908
-313 -237 -53 -477 -99 -595 -114 -465 -59 -776 -77 -1230 -67 -480 9 -798 38
-1145 102 -449 83 -815 192 -1185 355 l-136 59 -82 159 -82 159 68 -45 c37
-25 139 -80 227 -123z"/>
<path d="M27 103 c-25 -4 -27 -8 -27 -54 0 -48 1 -49 30 -49 30 0 30 1 30 55
0 30 -1 54 -2 54 -2 -1 -15 -4 -31 -6z"/>
</g>
</svg>
