<?xml version="1.0" standalone="no"?>
<!DOCTYPE svg PUBLIC "-//W3C//DTD SVG 20010904//EN"
 "http://www.w3.org/TR/2001/REC-SVG-20010904/DTD/svg10.dtd">
<svg version="1.0" xmlns="http://www.w3.org/2000/svg"
 width="566.000000pt" height="286.000000pt" viewBox="0 0 566.000000 286.000000"
 preserveAspectRatio="xMidYMid meet">
<metadata>
Created by potrace 1.16, written by Peter Selinger 2001-2019
</metadata>
<g transform="translate(0.000000,286.000000) scale(0.100000,-0.100000)"
fill="#000000" stroke="none">
<path d="M1098 2683 c-93 -105 -150 -180 -189 -248 -34 -60 -34 -60 -9 -85 34
-34 65 -29 378 52 26 7 46 8 51 2 14 -14 61 -185 61 -220 0 -51 28 -129 59
-161 15 -17 38 -60 51 -97 21 -64 21 -68 5 -86 -13 -14 -16 -28 -11 -52 5 -25
-2 -56 -31 -129 l-38 -97 -50 -6 c-27 -3 -73 -6 -102 -6 -84 0 -151 -18 -169
-46 -17 -24 -16 -44 5 -134 5 -25 10 -111 11 -192 l0 -148 -35 -46 c-19 -25
-32 -51 -28 -57 4 -7 22 -34 40 -61 39 -58 44 -114 13 -153 -11 -14 -20 -35
-20 -45 0 -31 36 -74 85 -102 25 -15 45 -31 45 -35 0 -12 -66 -173 -90 -221
-11 -22 -29 -46 -40 -52 -24 -15 -27 -70 -5 -88 17 -14 65 -5 77 13 4 7 8 22
8 35 0 26 97 271 114 288 14 16 76 6 76 -12 0 -21 -39 -186 -51 -216 -6 -15
-17 -29 -25 -32 -17 -7 -19 -57 -2 -74 17 -17 74 -15 92 4 10 9 16 33 16 57 0
23 10 90 22 149 l23 108 115 -3 c63 -1 147 2 185 6 l71 8 42 -131 c23 -71 42
-136 42 -144 0 -17 22 -26 66 -26 32 0 34 2 34 33 0 22 -9 44 -27 64 -34 38
-83 160 -83 207 0 28 6 38 35 56 37 23 68 61 79 97 5 15 -1 34 -20 63 -27 40
-27 43 -32 244 -3 112 -2 215 2 229 4 19 14 26 45 31 22 3 47 9 56 12 15 6 16
4 5 -16 -18 -33 -7 -173 17 -235 76 -189 75 -186 57 -206 -16 -18 -15 -21 11
-60 16 -23 67 -67 117 -101 120 -82 121 -84 92 -164 -35 -96 -47 -118 -72
-129 -20 -9 -22 -15 -17 -45 10 -50 10 -50 75 -50 l59 0 -6 49 c-4 35 1 70 17
125 20 66 26 76 46 76 12 0 35 -14 51 -30 15 -17 44 -35 63 -40 36 -9 366 -34
433 -32 52 2 113 19 131 38 8 8 39 26 68 39 49 23 54 24 65 8 18 -24 54 -121
62 -168 6 -36 10 -40 38 -43 51 -5 73 12 73 58 0 32 -5 43 -27 57 -14 10 -44
44 -65 77 -43 67 -40 81 21 92 49 9 86 29 122 66 23 25 28 38 24 59 -7 32 34
112 66 130 23 12 55 73 68 127 6 28 4 56 -5 93 -8 30 -14 82 -14 117 l0 65 31
-7 c17 -3 42 -6 56 -6 39 0 70 -40 77 -101 4 -30 11 -84 17 -120 9 -60 8 -70
-10 -99 -18 -31 -19 -36 -5 -63 23 -43 87 -66 227 -83 66 -7 124 -17 128 -21
12 -12 40 -93 50 -146 7 -34 7 -59 0 -79 -6 -17 -11 -47 -11 -67 0 -55 -17
-105 -56 -163 -30 -44 -34 -56 -25 -76 9 -19 17 -23 49 -20 36 3 37 4 43 53 4
28 12 61 17 75 10 24 11 24 11 3 1 -12 -4 -33 -10 -47 -18 -38 -4 -76 27 -76
52 0 65 16 59 73 l-5 52 16 -50 c27 -85 37 -94 90 -81 20 5 24 13 24 44 0 30
-6 42 -33 63 -58 47 -106 171 -114 296 -4 65 -3 73 16 83 16 8 21 20 21 49 0
40 0 40 80 90 8 5 35 16 60 25 25 9 62 30 83 47 42 34 47 65 22 126 -20 46
-19 87 2 145 l16 47 -31 29 c-29 27 -32 35 -32 91 0 53 -4 64 -31 96 -27 30
-37 35 -75 35 -24 0 -77 -7 -119 -17 -41 -9 -78 -13 -81 -10 -4 4 -2 19 4 34
6 15 19 82 28 147 9 66 25 145 36 175 14 40 22 101 29 216 5 88 12 174 17 190
10 35 -15 31 299 43 150 6 216 12 227 21 28 23 19 64 -21 103 -45 43 -359 273
-423 311 l-46 26 -125 -58 c-206 -96 -442 -219 -482 -252 -49 -40 -50 -75 -4
-93 44 -19 83 -24 306 -41 107 -8 195 -16 196 -17 8 -9 -40 -239 -55 -268 -28
-54 -42 -147 -28 -185 6 -18 8 -41 4 -51 -7 -16 -11 -11 -26 26 -14 34 -18 60
-13 105 l5 60 -35 13 c-28 10 -36 19 -41 46 -3 18 -19 45 -36 61 -27 26 -33
27 -97 22 -87 -7 -199 -44 -339 -112 -137 -67 -174 -96 -174 -138 l0 -30 -23
21 c-13 12 -32 22 -42 22 -10 0 -50 19 -87 41 -38 23 -113 57 -166 75 -93 33
-102 34 -202 28 -181 -9 -362 -33 -423 -56 -48 -17 -66 -31 -101 -77 -48 -61
-106 -120 -106 -106 0 4 18 27 40 51 22 24 40 50 40 58 0 24 -73 81 -201 156
-139 83 -349 187 -394 196 -45 9 -78 -23 -110 -106 -15 -38 -35 -80 -45 -92
l-18 -23 -12 30 c-23 57 -29 85 -19 90 14 9 11 47 -11 118 -17 54 -25 67 -48
75 -25 8 -32 21 -57 98 -15 49 -30 94 -32 100 -2 6 19 19 48 28 115 38 273
130 284 166 8 25 -26 75 -64 94 -39 20 -157 35 -333 41 l-153 5 -77 -87z m322
52 c151 -9 218 -24 253 -55 l31 -27 -75 -7 c-97 -9 -297 -50 -379 -77 -92 -30
-232 -101 -285 -145 -25 -20 -48 -35 -51 -32 -6 7 100 150 190 256 76 89 100
103 176 96 25 -2 88 -6 140 -9z m3090 -220 c47 -36 126 -94 175 -129 232 -165
205 -181 -280 -165 -380 12 -675 42 -675 68 0 17 94 73 280 166 107 54 229
113 269 131 l75 32 35 -18 c20 -11 74 -49 121 -85z m-2840 89 c0 -6 -263 -134
-277 -134 -12 0 -36 91 -26 101 20 20 303 51 303 33z m-365 -105 c9 -28 15
-52 14 -53 -2 -1 -67 -19 -144 -39 -143 -37 -235 -54 -235 -44 0 4 12 18 28
32 30 29 277 155 304 155 11 0 22 -17 33 -51z m600 -456 c66 -33 165 -86 220
-118 165 -94 197 -125 170 -161 -13 -18 -14 -18 -46 5 -89 66 -202 136 -298
185 -110 56 -256 110 -272 100 -12 -7 -11 13 2 38 19 35 87 20 224 -49z m-133
-39 c32 -9 58 -19 58 -23 -1 -21 -50 -98 -68 -107 -38 -19 -57 -42 -87 -104
-25 -53 -28 -65 -18 -91 10 -25 9 -37 -4 -65 l-17 -34 -83 0 c-99 0 -100 1
-47 110 20 41 54 118 76 170 48 112 81 160 110 160 12 0 48 -7 80 -16z m2228
-29 c17 -9 30 -19 30 -24 0 -5 -30 -14 -67 -21 -136 -23 -371 -116 -478 -189
-38 -26 -42 -26 -47 3 -9 48 24 75 181 145 206 93 319 118 381 86z m-2035 -59
c68 -36 101 -59 103 -72 3 -29 -40 -97 -73 -113 -38 -18 -50 -33 -81 -98 -20
-42 -23 -56 -14 -73 8 -16 7 -28 -6 -55 -9 -19 -20 -35 -24 -35 -5 0 -44 17
-88 39 -44 21 -90 41 -101 44 -12 3 -21 13 -21 24 0 29 38 83 58 83 24 0 43
22 77 89 26 52 26 56 11 82 -16 27 -15 30 11 83 15 31 32 56 38 56 5 0 55 -24
110 -54z m2153 -220 c40 -117 72 -217 72 -222 0 -5 -37 -9 -82 -9 l-82 0 -14
38 c-13 33 -13 39 2 55 22 25 20 49 -7 96 -21 38 -34 49 -69 60 -18 5 -63 135
-56 158 5 15 78 36 128 37 l36 1 72 -214z m-1237 194 c10 -6 19 -20 19 -32 0
-12 7 -30 17 -40 15 -17 14 -18 -33 -19 -64 -1 -38 -12 75 -32 115 -22 212
-70 296 -148 82 -76 133 -152 177 -263 32 -80 32 -83 31 -236 -1 -178 -9 -209
-77 -304 -50 -70 -151 -169 -215 -212 -25 -16 -92 -45 -150 -64 l-106 -35 -3
-47 -3 -48 -42 0 c-88 0 -118 11 -133 45 -11 28 -23 35 -93 59 -44 14 -86 26
-93 26 -7 0 -22 -12 -33 -26 -21 -26 -21 -26 -56 -9 -52 26 -179 119 -179 130
0 6 9 16 20 23 28 17 25 41 -10 89 -36 49 -77 78 -108 75 -18 -1 -27 7 -43 42
-10 24 -22 58 -25 75 -6 27 -2 33 30 52 20 11 36 25 36 31 0 5 4 7 9 4 5 -3
17 -37 26 -76 20 -81 71 -166 136 -226 121 -111 368 -239 400 -207 8 8 -5 16
-43 28 -156 52 -336 175 -410 282 -89 130 -107 356 -43 542 34 101 66 152 144
231 79 80 142 122 227 150 86 29 82 54 -5 29 -9 -3 -19 10 -27 39 -12 41 -12
43 9 53 48 21 247 35 278 19z m302 -56 c29 -14 67 -37 85 -51 32 -24 32 -25
16 -52 -15 -25 -15 -30 -1 -57 29 -57 63 -84 105 -84 21 0 43 5 49 11 9 9 21
-7 47 -60 20 -39 36 -75 36 -81 0 -6 -11 -27 -25 -48 -21 -32 -23 -42 -15 -77
17 -72 9 -72 -14 0 -36 115 -84 193 -167 275 -86 84 -157 131 -250 163 l-64
22 48 3 c41 3 49 7 62 33 9 16 20 29 26 29 5 0 33 -12 62 -26z m695 -44 c15
-45 20 -78 17 -106 -8 -60 19 -122 61 -140 25 -10 36 -23 43 -51 6 -20 9 -38
8 -39 -7 -6 -213 -64 -229 -64 -22 0 -35 46 -19 71 16 26 14 44 -10 92 -27 54
-48 77 -69 77 -12 0 -26 20 -44 61 -14 33 -26 67 -26 74 0 26 164 96 215 92
27 -2 32 -8 53 -67z m-1705 -1 c76 -56 82 -73 41 -132 -21 -31 -28 -36 -40
-26 -19 16 -39 -2 -81 -73 -45 -76 -48 -93 -22 -117 17 -16 20 -27 15 -53 -12
-60 -20 -65 -61 -32 -20 16 -58 45 -85 65 l-48 35 20 32 c10 17 28 34 39 37
49 16 99 102 97 167 -1 40 36 148 51 148 3 -1 36 -23 74 -51z m237 -49 c7 -13
21 -20 40 -20 27 0 25 -4 -54 -82 -110 -111 -169 -222 -193 -366 l-17 -100
-18 29 c-10 16 -23 29 -30 30 -7 1 -22 2 -33 3 -17 1 -20 8 -19 42 0 23 11 63
25 90 21 43 29 50 61 55 39 6 56 22 110 103 34 51 35 66 3 96 l-25 24 57 58
c62 63 77 69 93 38z m1204 -39 c29 -64 31 -83 15 -112 -15 -29 30 -124 71
-147 42 -23 50 -60 19 -83 -13 -10 -36 -28 -51 -39 -30 -23 -48 -19 -48 9 0
31 -32 112 -46 118 -36 14 -109 184 -98 228 6 25 77 85 100 85 6 0 23 -26 38
-59z m-1937 -180 c164 -57 375 -194 360 -234 -27 -71 -262 -18 -436 98 -105
69 -159 142 -118 158 34 14 118 5 194 -22z m-252 1 c6 -4 20 -23 32 -43 l21
-37 -147 -5 c-80 -4 -161 -9 -178 -13 -32 -6 -33 -5 -33 25 0 21 7 35 25 47
35 23 255 44 280 26z m2753 -104 c6 -31 -96 -122 -163 -147 -158 -60 -338 -83
-372 -48 -15 14 -15 18 0 40 58 89 522 223 535 155z m-587 -82 c12 -78 7 -112
-19 -118 -42 -11 -53 7 -67 114 -6 43 -4 50 21 73 37 34 52 19 65 -69z m-2011
29 c58 -39 202 -110 235 -117 23 -4 33 -51 34 -161 1 -67 1 -68 -29 -73 -30
-6 -30 -7 -30 -72 0 -84 14 -102 82 -102 l48 0 0 -50 0 -50 -215 0 c-166 0
-215 3 -215 13 0 31 21 81 40 94 17 12 20 25 20 79 0 81 -11 104 -50 104 l-30
0 0 176 c0 102 4 183 10 195 12 22 16 21 100 -36z m-132 -142 c-3 -186 -3
-188 -25 -191 -35 -5 -53 -40 -53 -104 0 -51 3 -60 25 -74 23 -15 26 -23 23
-63 l-3 -46 -124 -8 c-68 -4 -126 -6 -128 -4 -2 3 -9 98 -14 213 -11 215 -6
421 11 438 14 14 88 23 198 25 l92 1 -2 -187z m3007 132 c14 -13 25 -36 25
-50 0 -24 -2 -25 -59 -25 -90 0 -198 -17 -386 -62 -210 -49 -305 -61 -158 -20
132 38 172 54 244 101 53 35 97 50 214 74 57 12 96 7 120 -18z m14 -124 c18
-18 41 -132 41 -206 0 -37 0 -37 -108 -49 -54 -5 -61 8 -32 63 23 45 20 100
-6 122 -8 6 -14 8 -14 4 0 -4 -7 -2 -15 5 -15 13 -21 61 -8 73 3 4 33 7 65 7
43 0 63 -5 77 -19z m-171 -34 c2 -17 -4 -37 -13 -47 -20 -22 -13 -92 11 -113
7 -6 20 -18 29 -25 21 -18 14 -35 -16 -44 -29 -8 -265 -38 -296 -38 -28 0 -30
23 -4 56 15 20 17 31 10 69 -11 58 -17 68 -37 60 -17 -6 -32 10 -32 37 0 11
13 21 38 28 72 21 227 48 267 47 36 -2 40 -5 43 -30z m-2148 -13 c6 -14 10
-54 10 -90 l0 -65 -36 -15 c-20 -8 -38 -13 -41 -10 -3 3 -8 43 -10 90 -6 94 2
116 43 116 17 0 28 -8 34 -26z m1413 -3 l32 -7 3 -72 3 -72 -31 -7 c-38 -7
-53 -28 -85 -124 l-26 -74 31 -28 31 -28 -21 -34 c-16 -26 -29 -35 -49 -35
-35 0 -118 -53 -133 -85 -8 -19 -8 -28 2 -40 11 -13 10 -18 -6 -31 -30 -23
-86 -51 -130 -64 -39 -12 -42 -11 -68 15 -19 19 -32 25 -49 20 -50 -15 -60
-14 -27 1 19 9 63 30 97 46 123 57 252 189 320 324 33 68 35 79 40 198 5 105
8 124 20 115 7 -6 28 -15 46 -18z m363 -75 c-9 -72 1 -123 25 -129 36 -10 23
-46 -23 -67 -53 -24 -75 -25 -86 -2 -12 22 -32 138 -32 186 0 32 4 39 33 51
17 8 45 14 61 15 l28 0 -6 -54z m-2428 -102 c20 -6 22 -13 22 -64 0 -70 -13
-84 -67 -74 -52 9 -63 20 -63 63 0 64 41 93 108 75z m-18 -178 c0 -8 -13 -72
-29 -142 -16 -71 -43 -201 -60 -289 -18 -88 -34 -170 -37 -182 -3 -16 -12 -23
-29 -23 -30 0 -43 19 -23 34 8 6 20 20 26 32 11 21 105 448 117 537 5 30 12
47 21 47 8 0 14 -6 14 -14z m-75 -133 c-4 -16 -11 -33 -16 -39 -5 -6 -62 -19
-126 -29 -112 -17 -117 -17 -130 1 -17 24 -17 49 2 64 8 7 65 15 132 20 65 4
124 8 132 9 10 1 11 -6 6 -26z m555 -3 c9 -13 5 -58 -5 -68 -2 -2 -12 1 -22 6
-27 14 -307 24 -388 14 -38 -5 -73 -8 -76 -6 -14 8 5 56 25 65 11 5 119 8 239
6 181 -2 219 -5 227 -17z m-160 -80 c0 -6 10 -15 23 -19 22 -9 22 -9 -5 -20
-15 -5 -61 -13 -102 -17 -42 -4 -76 -11 -76 -17 0 -6 22 -7 58 -3 157 18 205
43 139 71 -25 11 -27 14 -11 15 42 0 84 -13 84 -27 0 -22 -97 -61 -183 -72
-99 -14 -264 -14 -272 -1 -4 6 17 10 56 10 34 0 60 2 58 4 -3 3 -54 10 -116
16 -2 0 -3 11 -3 25 0 19 7 26 28 31 15 3 32 7 37 9 27 9 285 4 285 -5z"/>
<path d="M1537 1513 c-26 -26 35 -94 133 -147 77 -42 72 -23 -9 28 -108 69
-138 106 -86 106 75 0 383 -151 372 -183 -2 -8 -23 -11 -63 -9 -48 3 -57 1
-46 -9 17 -18 115 -17 136 0 15 13 15 16 -9 41 -32 33 -215 129 -303 159 -62
21 -113 27 -125 14z"/>
</g>
</svg>
