<?xml version="1.0" standalone="no"?>
<!DOCTYPE svg PUBLIC "-//W3C//DTD SVG 20010904//EN"
 "http://www.w3.org/TR/2001/REC-SVG-20010904/DTD/svg10.dtd">
<svg version="1.0" xmlns="http://www.w3.org/2000/svg"
 width="1024.000000pt" height="1024.000000pt" viewBox="0 0 1024.000000 1024.000000"
 preserveAspectRatio="xMidYMid meet">

<g transform="translate(0.000000,1024.000000) scale(0.100000,-0.100000)"
fill="#000000" stroke="none">
<path d="M4134 8427 c-60 -30 -153 -71 -206 -91 -75 -29 -105 -47 -133 -77
-55 -61 -51 -81 64 -319 55 -113 125 -263 156 -335 32 -71 74 -166 95 -210
l38 -80 -27 -11 c-83 -36 -93 -144 -20 -243 38 -53 84 -74 214 -96 55 -9 110
-23 122 -31 25 -16 67 -93 117 -217 35 -86 117 -281 140 -332 17 -39 11 -57
-102 -282 -49 -98 -115 -234 -147 -303 -31 -69 -75 -163 -97 -210 -22 -47 -49
-105 -60 -130 -11 -25 -62 -133 -115 -241 l-95 -197 -67 5 c-257 17 -404 91
-447 226 -15 49 -16 65 -6 120 23 124 13 160 -52 191 -45 21 -111 20 -161 -3
-53 -24 -179 -125 -233 -186 -54 -62 -134 -222 -168 -340 -24 -82 -27 -112
-34 -340 -10 -323 -25 -386 -135 -540 -45 -62 -189 -207 -285 -285 -154 -126
-265 -242 -348 -365 -128 -189 -175 -350 -176 -600 0 -131 4 -164 28 -260 34
-135 74 -223 155 -343 136 -203 299 -351 558 -509 205 -124 530 -239 773 -274
143 -20 358 -15 480 11 270 58 427 138 603 309 174 170 299 410 343 662 20
117 14 237 -21 410 -35 170 -41 266 -21 359 20 96 57 170 116 236 l48 52 30
-31 c38 -41 114 -151 140 -202 51 -102 64 -172 60 -320 -1 -77 -3 -228 -2
-335 1 -177 3 -204 27 -290 61 -225 163 -397 330 -556 403 -384 1016 -425
1672 -113 409 194 717 513 834 864 51 155 64 242 58 390 -15 357 -162 595
-555 897 -196 152 -294 258 -351 378 -32 66 -60 207 -86 422 -24 200 -63 279
-215 430 -93 92 -168 138 -291 177 -226 72 -427 68 -683 -14 -60 -19 -115 -35
-121 -35 -22 0 -61 72 -289 527 -265 531 -270 542 -263 587 11 67 239 562 277
600 26 26 39 30 137 42 60 6 125 19 145 27 47 20 94 84 107 149 10 44 9 56 -7
87 -10 20 -35 47 -55 60 l-37 24 20 36 c10 20 46 99 79 176 123 289 164 383
206 475 65 139 67 146 55 190 -14 53 -80 108 -171 144 -41 16 -122 51 -180 78
-112 51 -164 59 -241 38 -82 -23 -100 -53 -158 -267 l-23 -83 -68 0 c-37 0
-75 -3 -84 -6 -20 -8 -45 -56 -45 -86 0 -60 41 -137 78 -149 9 -3 7 -21 -9
-69 -11 -36 -22 -66 -23 -68 -2 -1 -23 5 -47 13 -60 22 -115 11 -155 -29 -70
-70 -49 -199 37 -234 38 -16 40 -19 34 -52 -4 -19 -38 -105 -77 -190 -38 -85
-75 -176 -81 -202 -7 -27 -14 -48 -17 -48 -10 1 -220 454 -220 475 0 4 4 3 10
0 19 -12 89 16 114 46 34 40 35 99 3 160 -36 70 -129 107 -200 80 -24 -9 -26
-7 -50 57 l-25 67 36 5 c43 6 71 41 79 99 7 53 -9 85 -55 107 -33 15 -91 15
-133 -1 -16 -6 -26 16 -79 192 -35 116 -63 156 -128 184 -73 32 -115 25 -238
-34z m1830 -340 c-3 -10 -22 -46 -41 -80 -20 -34 -80 -147 -133 -252 l-98
-190 -7 -110 c-12 -178 -37 -235 -105 -235 -67 0 -120 64 -120 146 0 59 26
141 96 304 103 241 204 497 204 519 0 17 11 14 105 -32 87 -42 104 -54 99 -70z
m-1584 -192 c73 -165 143 -327 155 -360 76 -203 12 -376 -114 -310 -44 22 -63
82 -69 210 l-4 110 -83 150 c-46 83 -115 204 -154 270 -74 125 -82 145 -55
145 20 0 130 48 164 71 14 10 26 17 26 16 1 -1 61 -137 134 -302z m740 -2275
c40 -91 99 -221 132 -290 71 -148 148 -327 148 -343 0 -7 -49 -46 -108 -87
-125 -88 -293 -251 -340 -332 -129 -219 -163 -445 -102 -666 l23 -83 -24 -16
c-106 -73 -241 -307 -280 -483 -20 -94 -16 -273 9 -392 36 -166 44 -260 32
-366 -14 -111 -40 -202 -82 -287 -151 -300 -408 -455 -808 -488 -70 -6 -240
11 -348 34 -286 61 -612 240 -820 448 -90 90 -185 218 -226 305 -65 137 -85
371 -46 527 52 202 114 281 559 705 125 119 206 224 266 347 70 144 76 177 85
472 8 286 8 285 83 448 l41 89 11 -39 c18 -58 78 -145 135 -195 92 -81 218
-130 408 -159 l80 -12 -23 -51 c-88 -191 -162 -353 -197 -426 -84 -177 -101
-230 -102 -305 0 -57 4 -79 26 -120 52 -99 156 -169 248 -168 69 1 160 41 188
83 20 29 23 44 19 86 -5 48 -4 51 16 47 12 -2 27 0 33 4 21 14 212 415 429
898 216 480 455 990 461 982 1 -1 34 -76 74 -167z m1416 -600 c43 -11 103 -32
132 -46 76 -37 162 -125 200 -204 34 -74 45 -125 67 -326 19 -174 34 -235 85
-342 77 -162 170 -259 519 -541 125 -102 212 -205 271 -323 66 -131 84 -218
77 -367 -10 -228 -104 -410 -318 -620 -117 -114 -208 -180 -373 -270 -340
-185 -749 -246 -1036 -155 -137 43 -328 172 -411 276 -166 211 -225 445 -195
777 19 210 11 288 -46 451 -39 113 -71 168 -196 339 -126 172 -142 201 -177
311 -39 121 -39 230 -1 320 40 91 113 193 203 283 69 67 202 174 207 165 0 -2
57 -113 126 -248 68 -135 137 -270 152 -300 26 -50 58 -153 94 -303 35 -147
122 -227 244 -227 110 0 246 91 270 181 25 93 19 109 -281 712 -104 210 -188
388 -187 396 3 15 48 29 198 61 119 26 275 26 376 0z"/>
<path d="M3475 3738 c-52 -50 -62 -100 -45 -240 21 -165 19 -241 -9 -316 -13
-34 -28 -62 -33 -62 -5 0 -64 28 -130 63 -106 55 -126 62 -175 61 -48 0 -59
-4 -79 -27 -50 -58 -48 -134 3 -180 12 -10 168 -94 348 -188 180 -93 359 -188
396 -210 110 -66 196 -63 225 7 19 45 18 68 -6 113 -27 55 -61 80 -224 165
-141 74 -145 77 -127 95 20 20 47 88 55 141 6 34 8 35 49 35 62 0 114 38 172
125 45 67 94 184 95 223 0 14 -5 16 -27 10 -109 -30 -238 18 -324 120 -94 112
-108 117 -164 65z"/>
<path d="M2839 2907 c-47 -32 -63 -67 -50 -114 22 -78 22 -78 718 -439 173
-90 213 -100 273 -69 57 29 65 134 15 193 -16 19 -121 79 -292 167 -148 76
-304 158 -348 183 -191 108 -251 123 -316 79z"/>
<path d="M6525 3923 c-23 -162 -39 -206 -95 -267 -80 -87 -262 -141 -340 -102
-18 9 -37 16 -42 16 -25 0 9 -119 62 -218 48 -91 112 -157 186 -193 59 -29 70
-32 104 -22 l39 10 21 -56 c12 -31 26 -67 31 -80 6 -13 6 -27 2 -32 -4 -4 -63
-35 -130 -69 -67 -34 -134 -73 -148 -87 -52 -53 -57 -146 -10 -200 19 -23 31
-28 72 -28 41 0 64 9 153 61 125 73 326 180 544 289 177 89 198 108 200 179 1
55 -26 95 -79 115 -34 13 -43 13 -85 -2 -27 -10 -84 -37 -128 -62 -85 -48 -92
-51 -92 -35 0 6 -13 31 -29 57 l-29 47 23 18 c13 10 39 49 57 85 30 61 32 74
32 157 -1 138 -46 238 -158 346 -50 49 -132 110 -148 110 -4 0 -10 -17 -13
-37z"/>
<path d="M7139 2897 c-35 -18 -109 -58 -164 -89 -55 -31 -192 -106 -305 -166
-270 -145 -286 -155 -310 -194 -25 -41 -25 -82 -2 -128 38 -77 97 -75 257 9
61 32 155 82 210 111 55 29 135 73 179 97 43 25 132 71 196 104 65 32 127 70
139 85 65 83 6 204 -100 204 -22 0 -63 -13 -100 -33z"/>
<path d="M3734 7884 c-64 -23 -89 -56 -88 -115 0 -38 7 -59 30 -92 42 -60 72
-67 137 -35 28 14 62 29 75 33 26 8 28 23 6 73 -9 20 -24 62 -33 92 -16 52
-19 55 -52 57 -18 1 -52 -5 -75 -13z"/>
<path d="M6187 7893 c-4 -3 -7 -13 -7 -21 0 -7 -14 -48 -30 -90 -17 -41 -29
-81 -26 -88 3 -7 20 -15 38 -19 18 -4 46 -19 62 -32 70 -59 176 23 176 135 0
37 -57 90 -113 107 -54 16 -90 19 -100 8z"/>
<path d="M3851 7572 c-56 -28 -76 -63 -76 -136 0 -105 34 -139 138 -139 56 0
111 22 121 48 21 55 -15 189 -61 225 -32 25 -77 26 -122 2z"/>
<path d="M6057 7567 c-28 -27 -45 -76 -54 -154 -5 -48 -3 -54 24 -82 54 -54
168 -51 212 5 30 38 36 106 13 156 -28 63 -62 90 -121 96 -43 4 -53 1 -74 -21z"/>
<path d="M27 103 c-25 -4 -27 -8 -27 -54 0 -48 1 -49 30 -49 30 0 30 1 30 55
0 30 -1 54 -2 54 -2 -1 -15 -4 -31 -6z"/>
</g>
</svg>
